<svg version="1.1" id="Capa_1" xmlns="http://www.w3.org/2000/svg" x="0" y="0" viewBox="0 0 377.3 377.3" xml:space="preserve"><style>.st0{fill:#2e5bff}</style><path class="st0" d="M266.4 284.2c1.3-.9 2.3-1.9 3.1-3.1s1.2-2.4 1.2-3.7c0-.8-.2-1.6-.7-2.4a5.46 5.46 0 00-4.5-2.5 4.9 4.9 0 00-4.3 2.3c-.4.7-.6 1.5-.6 2.3-.1 2.7 1.9 5 5.8 7.1zM264.5 291.3c-1.7.9-3 2-4.1 3.4s-1.6 3-1.6 4.6c0 1.1.3 2.1.9 3.1s1.4 1.7 2.4 2.3 2.1.9 3.3.9c1.2 0 2.3-.3 3.3-.8s1.7-1.3 2.3-2.2.8-1.9.8-3.1c0-1.7-.7-3.3-2-4.8s-3.1-2.6-5.3-3.4z"/><path class="st0" d="M338.7 0h-300C19.1 0 3.2 15.9 3.2 35.4v306.5a35.4 35.4 0 0035.4 35.4h300a35.4 35.4 0 0035.4-35.4V35.4C374.1 15.9 358.2 0 338.7 0zm-3.3 304.1c0 18.6-15.1 33.7-33.7 33.7h-226c-18.6 0-33.7-15.1-33.7-33.7V73.2c0-18.6 15.1-33.7 33.7-33.7h226c18.6 0 33.7 15.1 33.7 33.7v230.9z"/><path class="st0" d="M301.7 53.5h-226C64.8 53.5 56 62.3 56 73.2v230.9c0 10.9 8.8 19.7 19.7 19.7h226c10.9 0 19.7-8.8 19.7-19.7V73.2c0-10.9-8.8-19.7-19.7-19.7zM189.3 196.3c0 7.6-3.9 14.2-11.6 19.8-7.7 5.6-16.6 8.4-26.6 8.4H113c-10.1 0-19-2.8-26.5-8.4-7.6-5.6-11.4-12.1-11.4-19.7V184h38.4v12.3h37.8V175l-61-32.3c-10.1-5.4-15.2-12.7-15.2-21.9v-21c0-7.5 3.8-14.1 11.4-19.7 7.6-5.6 16.5-8.4 26.6-8.4h38c10 0 18.9 2.8 26.6 8.5 7.7 5.6 11.6 12.2 11.6 19.7v12.3h-38.7V100H113v20.4l61.4 33.2c9.9 5.4 14.9 12.6 14.9 21.7v21zm89 110.1c-1.3 2-3.2 3.6-5.4 4.8s-4.8 1.8-7.6 1.8-5.3-.6-7.6-1.7-4.1-2.7-5.4-4.7-2-4.2-2-6.6c0-2.3.8-4.6 2.3-6.8s3.5-4 6-5.4c-1.9-1.2-3.4-2.7-4.5-4.5s-1.7-3.7-1.7-5.6c0-2.2.6-4.2 1.8-6s2.8-3.3 4.9-4.4 4.3-1.6 6.7-1.6c2.4 0 4.7.5 6.7 1.6s3.6 2.5 4.7 4.3 1.7 3.7 1.7 5.8c0 1.9-.6 3.8-1.8 5.6s-2.8 3.4-4.7 4.7c2.4 1.3 4.3 3.1 5.8 5.3s2.2 4.5 2.2 6.9c-.1 2.2-.7 4.5-2.1 6.5zm30-.3c-1.2 2.1-2.9 3.8-5.2 5s-5 1.8-8.1 1.8c-6.1 0-10.8-2-14-6l3.3-6.7c-.1-.2-.1-.3-.1-.5 0 0 0-.1.1-.1s.1 0 .3.1v-.1l.7.4v.1c-.1 0-.2-.1-.4-.2s-.3-.2-.4-.2l-.2.4v.1c1.1 2 2.4 3.5 4.1 4.4s3.9 1.3 6.6 1.3c2.2 0 3.9-.7 5.2-2s1.8-3.1 1.8-5.3c0-2.4-.7-4.2-2-5.4s-3.6-1.8-6.8-1.8c-1.1 0-2.4.1-3.8.2v-6.5h1.5c3.7 0 6.3-.6 7.7-1.8s2.2-2.9 2.2-5c0-1.7-.5-3.1-1.5-4.2s-2.5-1.6-4.3-1.6c-1.6 0-3.1.3-4.5.8s-2.8 1.5-4.3 2.9l-4.5-4.6a16.66 16.66 0 0113.3-6.1c2.7 0 5.2.5 7.3 1.6s3.8 2.5 5 4.3 1.8 3.8 1.8 6.1c0 2.4-.6 4.5-1.8 6.2s-2.7 3-4.4 3.8c2.1.7 3.8 2 5.3 4s2.1 4.4 2.1 7.4c-.2 2.7-.8 5-2 7.2z"/></svg>