<svg version="1.1" id="Capa_1" xmlns="http://www.w3.org/2000/svg" x="0" y="0" viewBox="0 0 512 512" xml:space="preserve"><style>.st0{fill:#fff}</style><path class="st0" d="M257 210c-24.8 0-45 20.2-45 45s20.2 45 45 45 45-20.2 45-45-20.2-45-45-45z"/><path class="st0" d="M255 0C114.4 0 0 114.4 0 255s114.4 257 255 257 257-116.4 257-257S395.6 0 255 0zm107 330c-20.3 0-38.2-10.2-49-25.6-13.8 15.6-33.6 25.6-56 25.6-41.4 0-75-33.6-75-75s33.6-75 75-75c16.9 0 32.4 5.9 45 15.4v-.4c0-8.3 6.7-15 15-15s15 6.7 15 15v75c0 16.5 13.5 30 30 30s30-13.5 30-30c0-100.4-66.4-150-135-150-74.4 0-135 60.6-135 135s60.6 135 135 135c30 0 58.4-9.6 82.1-27.8 15.8-12.1 33.9 11.8 18.3 23.8-29 22.3-63.7 34-100.3 34-91 0-165-74-165-165S166 90 257 90c82.9 0 165 61.1 165 180 0 33.1-26.9 60-60 60z"/></svg>