<svg version="1.1" id="Layer_1" xmlns="http://www.w3.org/2000/svg" x="0" y="0" viewBox="0 0 512 512" xml:space="preserve"><path fill="#4100F4" d="M363.8 447.5c7.9 5.7 17.2 8.7 26.7 8.7 2.4 0 4.8-.2 7.1-.6a45.53 45.53 0 0037.9-52 45.58 45.58 0 00-52-37.9c-12 1.9-22.6 8.3-29.7 18.2s-10.1 21.9-8.2 33.9 8.3 22.5 18.2 29.7zm21.9-67.3c1.6-.3 3.2-.4 4.8-.4 14.9 0 28.1 10.9 30.5 26.1 2.6 16.8-8.9 32.7-25.7 35.3-16.8 2.6-32.7-8.9-35.3-25.7a30.89 30.89 0 0125.7-35.3z"/><path fill="#4100F4" d="M35.9 397.2c-7.4 47.2 24.9 91.6 72.1 99.1a87.4 87.4 0 0088.9-43L256 339.8l57 109.3 2.3 4.5c15.5 27.2 44.7 43.7 75.4 43.7a86 86 0 0013.3-1c47.2-7.4 79.5-51.8 72.1-99-7.4-47.2-51.8-79.5-99-72.1a84.93 84.93 0 00-42.4 19.5l-40.5-77.9L385 92.3c11.7-22.5 5.8-50.2-14.1-65.8L358 16.2a7.02 7.02 0 00-6.1-1.4c-2.1.5-4 1.8-5 3.8l-91 174.9L165 18.6c-1-1.9-2.8-3.3-5-3.8-2.1-.4-4.4.1-6.1 1.4L141 26.4a52.74 52.74 0 00-14.2 65.8l90.9 174.5-40.6 78a86.53 86.53 0 00-42.4-19.5c-47-7.4-91.4 24.9-98.8 72zM338 361.7c11-11.9 25.3-19.5 41.3-22 39.2-6.1 76.1 20.7 82.3 59.9 6.2 39.2-20.7 76.1-59.9 82.3-29.4 4.6-59-9.6-73.6-35.2l-43.7-83.9 32.8-19.9 9 17.2c1.1 2.1 3.2 3.6 5.5 3.9 2.3.2 4.7-.6 6.3-2.3zm17.9-328.5l6 4.8a38.1 38.1 0 0110.2 47.5l-86.2 165.4-21.6-41.6 91.6-176.1zm-205.7 4.7l6-4.8 154.3 296.7-32.8 19.9L139.9 85.5a38 38 0 0110.3-47.6zM247.7 324l-13.4 25.7-32.8-19.8 24.6-47.3 21.6 41.4zm-115.1 15.6a70.73 70.73 0 0141.3 22.1c1.6 1.7 4 2.6 6.3 2.3 2.4-.3 4.4-1.8 5.5-3.9l9-17.2 32.8 19.8-41.5 79.7-2 3.9a72.23 72.23 0 01-73.7 35.5c-39.2-6.2-66.1-43.1-59.9-82.3 6.1-39.2 43-66.1 82.2-59.9z"/><path fill="#4100F4" d="M114.4 455.6c2.4.4 4.8.6 7.1.6a45.53 45.53 0 007-90.5 45.53 45.53 0 00-52 37.9c-3.9 24.8 13.1 48.2 37.9 52zm-23.5-49.7a30.87 30.87 0 1161 9.6 30.87 30.87 0 01-35.3 25.7 31 31 0 01-25.7-35.3zM261.2 262.3c-2.8-2.8-7.7-2.8-10.4 0a7.36 7.36 0 000 10.3c1.4 1.4 3.3 2.1 5.2 2.1 1.9 0 3.8-.7 5.2-2.1.3-.4.6-.7.9-1.1.3-.4.5-.9.7-1.3.2-.4.4-.9.4-1.3.1-.5.1-1 .1-1.5 0-1.9-.8-3.8-2.1-5.1z"/></svg>