<svg xmlns="http://www.w3.org/2000/svg" viewBox="0 0 512 512"><path d="M497 192.8h-34.58a214.4 214.4 0 00-15.78-38.07l24.46-24.45a15 15 0 000-21.22L402.94 40.9a15 15 0 00-21.22 0l-24.45 24.46a214.22 214.22 0 00-38.07-15.77V15a15 15 0 00-15-15h-96.4a15 15 0 00-15 15v34.59a214.45 214.45 0 00-38.06 15.77L130.28 40.9a15 15 0 00-21.22 0L40.9 109.06a15 15 0 000 21.21l24.46 24.47a214.27 214.27 0 00-15.77 38.06H15a15 15 0 00-15 15v96.4a15 15 0 0015 15h34.59c4.02 13.17 9.3 25.9 15.77 38.06L40.9 381.72a15 15 0 000 21.21l68.16 68.17a15 15 0 0021.22 0l24.46-24.46a214.37 214.37 0 0038.06 15.77V497a15 15 0 0015 15h96.4a15 15 0 0015-15v-34.59c13.17-4.02 25.9-9.3 38.06-15.77l24.46 24.46a15 15 0 0021.21 0l68.17-68.16a15 15 0 000-21.22l-24.46-24.46a214.37 214.37 0 0015.78-38.06H497a15 15 0 0015-15v-96.4a15 15 0 00-15-15zM256 351.33c-52.57 0-95.33-42.76-95.33-95.33s42.76-95.33 95.33-95.33 95.33 42.76 95.33 95.33-42.76 95.33-95.33 95.33z"/></svg>