<svg xmlns="http://www.w3.org/2000/svg" viewBox="0 0 512 512"><path d="M400.6 0H111.4C49.97 0 0 49.97 0 111.4s49.97 111.4 111.4 111.4h289.2c61.43 0 111.4-49.97 111.4-111.4S462.03 0 400.6 0zM111.4 192.8c-44.88 0-81.4-36.52-81.4-81.4S66.52 30 111.4 30s81.4 36.52 81.4 81.4-36.52 81.4-81.4 81.4zM400.6 289.2H111.4C49.97 289.2 0 339.17 0 400.6 0 462.03 49.97 512 111.4 512h289.2c61.43 0 111.4-49.97 111.4-111.4 0-61.43-49.97-111.4-111.4-111.4zm0 192.8c-44.88 0-81.4-36.52-81.4-81.4s36.52-81.4 81.4-81.4 81.4 36.52 81.4 81.4-36.52 81.4-81.4 81.4z"/></svg>