<svg version="1.1" id="Capa_1" xmlns="http://www.w3.org/2000/svg" x="0" y="0" viewBox="0 0 512 512" xml:space="preserve"><style>.st0{fill:#fff}</style><path class="st0" d="M473.9 212.7c-7.4-3.8-16.4-.9-20.2 6.4l-17.5 33.8-16.8-33.6c-2.5-5.1-7.7-8.3-13.4-8.3s-10.9 3.2-13.4 8.3L376 252.5l-16.6-33.2c-2.7-5.4-8.3-8.6-14.3-8.3l-.9.1c-6.7.4-12.1 5.1-13.6 11.3-1-4.1-3.8-7.8-7.8-9.8-7.4-3.7-16.4-.7-20.1 6.7L286 252.5l-16.6-33.2c-2.5-5.1-7.7-8.3-13.4-8.3s-10.9 3.2-13.4 8.3L226 252.5l-16.6-33.2a14.98 14.98 0 00-20.1-6.7c-4.1 2-6.8 5.7-7.8 9.8-1.6-6.2-6.9-10.9-13.6-11.3l-.9-.1c-6-.4-11.6 2.9-14.3 8.3L136 252.5l-16.6-33.2c-5.5-10.9-21.3-11.2-26.8 0l-16.8 33.6-17.5-33.8a14.96 14.96 0 00-20.2-6.4 14.96 14.96 0 00-6.4 20.2l31 60c5.6 10.9 21.3 10.8 26.7-.2l16.6-33.2 16.6 33.2c5.5 11 21.3 11 26.8 0l27.9-55.9c2-1.9 3.4-4.4 4.1-7.1.3 1 .6 2 1.1 3l30 60c5.5 11 21.3 11 26.8 0l16.6-33.2 16.6 33.2c5.5 11 21.3 11 26.8 0l30-60c.5-1 .9-2 1.1-3 .7 2.8 2.1 5.2 4.1 7.1l27.9 55.9c5.5 11 21.3 11 26.8 0l16.6-33.2 16.6 33.2c5.5 11 21.1 11.1 26.7.2l31-60c4-7.4 1.1-16.4-6.2-20.2z"/><path class="st0" d="M493 159.3C454.9 66.3 362.6 0 256 0S57.1 66.3 19 159.3C7.5 167.5 0 180.9 0 196v120c0 15.1 7.5 28.5 19 36.7C57.1 445.7 149.4 512 256 512s198.9-66.3 237-159.3c11.5-8.2 19-21.6 19-36.7V196c0-15.1-7.5-28.5-19-36.7zm-37-8.3h-76.7c-9.5-40.8-24.4-76-43.3-102.3-1.3-1.8-2.7-3.6-4-5.3 52.6 19 97.4 57.3 124 107.6zM271 32.5c41 13.8 66.7 75.9 77.5 118.5H271V32.5zm-30 0V151h-77.5c8.6-34 21.2-63.1 36.8-84.7 9.4-13 23.3-28 40.7-33.8zm-61 10.9c-1.4 1.7-2.7 3.5-4 5.3-18.9 26.3-33.8 61.5-43.4 102.3H56c26.6-50.3 71.4-88.6 124-107.6zM56 361h76.7c8.7 37.4 23.7 77.3 47.4 107.6-52.7-19-97.5-57.3-124.1-107.6zm185 118.5c-41-13.8-66.7-75.9-77.5-118.5H241v118.5zm30 0V360.8h77.5C337.7 403.4 312 465.7 271 479.5zm61-10.9c23.6-30.3 38.6-70.4 47.4-107.8H456a228.84 228.84 0 01-124 107.8zM482 316c0 8.3-6.7 15-15 15H45c-8.3 0-15-6.7-15-15V196c0-8.3 6.7-15 15-15h422c8.3 0 15 6.7 15 15v120z"/></svg>